<svg width="868" height="222" viewBox="0 0 868 222" fill="none" xmlns="http://www.w3.org/2000/svg">
<path fill-rule="evenodd" clip-rule="evenodd" d="M87.4933 1.53264C65.7514 6.22666 47.706 16.2969 31.9445 32.5331C15.3908 49.5822 5.83932 68.3875 1.65355 92.1679C-2.44273 115.446 1.03598 137.839 12.4879 161.882C24.5038 187.11 48.4176 208.093 75.3596 217.046C92.41 222.712 115.539 223.61 132.49 219.263C148.573 215.139 166.69 205.78 179.249 195.111C190.034 185.948 194.156 179.515 192.803 173.961C191.766 169.708 155.021 131.395 150.226 129.568C144.78 127.494 141.267 129.671 127.067 143.927C108.081 162.987 109.068 163.134 83.8445 137.409C72.9684 126.315 63.666 115.584 63.1722 113.561C61.8073 107.954 64.1777 104.569 83.6924 84.2642C102.288 64.915 106.804 62.0463 113.352 65.4189C115.247 66.3946 122.231 73.0093 128.874 80.1187C146.455 98.9347 146.592 98.8978 176.133 67.6991C190.395 52.6352 192.129 50.2122 192.129 45.3384C192.129 40.9716 190.855 38.5409 185.789 33.2476C172.216 19.0672 154.437 8.34857 135.97 3.21357C123.521 -0.246639 99.5837 -1.07788 87.4933 1.53264Z" fill="white"/>
<path d="M187.808 81.8856C195.397 74.2461 203.333 67.0676 205.444 65.9321C207.556 64.7982 209.82 63.8655 210.477 63.8594C214.128 63.8302 221.575 70.1344 237.253 86.5259C253.675 103.696 254.781 105.236 254.781 110.929C254.781 116.689 253.744 118.064 234.892 137.292C209.185 163.509 211.117 163.354 188.648 141.016C170.339 122.813 164.602 119.694 146.431 118.06C133.414 116.887 123.763 119.682 115.883 126.905C112.284 130.206 108.777 132.925 108.089 132.95C105.523 133.039 87.7078 113.951 87.7078 111.111C87.7078 108.066 98.9285 95.5313 105.701 91.0109C109.435 88.5172 109.638 88.5817 114.553 93.8058C122.11 101.837 129.956 104.339 144.73 103.427C163.72 102.257 171.379 98.4276 187.808 81.8856Z" fill="#00CFC9"/>
<path d="M395.041 176.941C388.879 182.38 381.977 186.553 374.337 189.462C366.696 192.371 358.778 193.825 350.582 193.825C344.297 193.825 338.228 192.972 332.374 191.264C326.582 189.62 321.128 187.28 316.014 184.245C310.961 181.146 306.34 177.447 302.15 173.147C297.959 168.847 294.355 164.104 291.335 158.919C288.378 153.67 286.067 148.074 284.403 142.13C282.801 136.122 282 129.893 282 123.443C282 116.993 282.801 110.764 284.403 104.757C286.067 98.7496 288.378 93.1532 291.335 87.9678C294.355 82.7192 297.959 77.9448 302.15 73.6448C306.34 69.3447 310.961 65.677 316.014 62.6417C321.128 59.5431 326.582 57.1717 332.374 55.5276C338.228 53.8202 344.297 52.9665 350.582 52.9665C358.778 52.9665 366.696 54.421 374.337 57.3298C381.977 60.1755 388.879 64.349 395.041 69.8506C401.203 75.3522 384.874 97.8643 380.991 93.5642C377.109 89.2641 372.519 85.9758 367.22 83.6993C361.92 81.3596 356.375 80.1897 350.582 80.1897C344.728 80.1897 339.244 81.328 334.13 83.6045C329.016 85.881 324.548 88.9796 320.728 92.9002C316.907 96.7576 313.888 101.342 311.67 106.654C309.451 111.903 308.342 117.499 308.342 123.443C308.342 129.388 309.451 134.984 311.67 140.233C313.888 145.418 316.907 149.971 320.728 153.892C324.548 157.812 329.016 160.911 334.13 163.187C339.244 165.464 344.728 166.602 350.582 166.602C356.375 166.602 361.92 165.464 367.22 163.187C372.519 160.848 377.109 157.528 380.991 153.228C384.874 148.928 401.203 171.503 395.041 176.941Z" fill="white"/>
<path d="M499.948 139.189C499.948 146.778 498.623 153.86 495.973 160.437C493.324 166.95 489.719 172.61 485.159 177.415C480.599 182.158 475.238 185.921 469.076 188.703C462.976 191.422 456.414 192.782 449.389 192.782C442.426 192.782 435.864 191.422 429.702 188.703C423.601 185.921 418.24 182.158 413.619 177.415C409.059 172.61 405.454 166.95 402.805 160.437C400.155 153.86 398.83 146.778 398.83 139.189C398.83 131.474 400.155 124.329 402.805 117.752C405.454 111.175 409.059 105.516 413.619 100.773C418.24 95.9672 423.601 92.2046 429.702 89.4855C435.864 86.7663 442.426 85.4067 449.389 85.4067C456.414 85.4067 462.976 86.7031 469.076 89.2957C475.238 91.8252 480.599 95.4613 485.159 100.204C489.719 104.883 493.324 110.543 495.973 117.183C498.623 123.76 499.948 131.095 499.948 139.189Z" fill="white"/>
<path d="M609.568 190.885H603.468L593.671 176.941C591.268 179.154 588.71 181.241 585.999 183.202C583.349 185.099 580.546 186.774 577.588 188.229C574.63 189.62 571.58 190.727 568.438 191.549C565.357 192.371 562.214 192.782 559.01 192.782C552.047 192.782 545.484 191.454 539.322 188.798C533.222 186.079 527.861 182.348 523.24 177.605C518.68 172.799 515.075 167.14 512.426 160.626C509.776 154.05 508.451 146.904 508.451 139.189C508.451 131.538 509.776 124.423 512.426 117.847C515.075 111.27 518.68 105.579 523.24 100.773C527.861 95.9672 533.222 92.2046 539.322 89.4855C545.484 86.7663 552.047 85.4067 559.01 85.4067C561.228 85.4067 563.508 85.5964 565.85 85.9758C568.253 86.3553 570.563 86.9876 572.782 87.8729C575.062 88.695 577.187 89.8016 579.159 91.1928C581.131 92.584 582.795 94.2914 584.15 96.315V48.8878H609.568V190.885ZM584.15 139.189C584.15 135.648 583.473 132.233 582.117 128.945C580.823 125.593 579.036 122.653 576.756 120.123C574.476 117.531 571.796 115.476 568.715 113.958C565.695 112.377 562.46 111.587 559.01 111.587C555.559 111.587 552.293 112.219 549.212 113.484C546.193 114.748 543.543 116.582 541.263 118.985C539.045 121.325 537.289 124.202 535.995 127.617C534.701 131.032 534.054 134.889 534.054 139.189C534.054 142.92 534.701 146.461 535.995 149.813C537.289 153.164 539.045 156.105 541.263 158.634C543.543 161.164 546.193 163.156 549.212 164.61C552.293 166.065 555.559 166.792 559.01 166.792C562.46 166.792 565.695 166.033 568.715 164.515C571.796 162.934 574.476 160.879 576.756 158.35C579.036 155.757 580.823 152.817 582.117 149.528C583.473 146.177 584.15 142.73 584.15 139.189Z" fill="white"/>
<path d="M668.261 166.033C669.247 166.349 670.233 166.57 671.219 166.697C672.205 166.76 673.19 166.792 674.176 166.792C676.641 166.792 679.013 166.444 681.293 165.748C683.573 165.053 685.699 164.073 687.671 162.808C693.031 159.308 698.541 153.927 703.207 149.623C709.01 144.27 718.604 126.131 718.604 126.131C718.604 126.131 717.741 167.456 715.4 170.871C713.058 174.285 710.347 177.352 707.266 180.071C704.247 182.791 700.95 185.099 697.376 186.996C693.864 188.893 690.136 190.316 686.192 191.264C682.31 192.276 678.305 192.782 674.176 192.782C667.213 192.782 660.651 191.454 654.489 188.798C648.389 186.142 643.028 182.443 638.406 177.7C633.846 172.957 630.242 167.329 627.592 160.816C624.942 154.239 623.618 147.03 623.618 139.189C623.618 131.158 624.942 123.823 627.592 117.183C630.242 110.543 633.846 104.883 638.406 100.204C643.028 95.5245 648.389 91.8884 654.489 89.2957C660.651 86.7031 667.213 85.4067 674.176 85.4067C678.305 85.4067 682.341 85.9126 686.285 86.9244C690.228 87.9362 693.956 89.3906 697.468 91.2877C701.042 93.1848 704.37 95.5245 707.451 98.3069C710.532 101.026 712.319 102.481 714.66 105.895L668.261 166.033ZM681.201 112.63C680.03 112.187 678.859 111.903 677.689 111.776C676.58 111.65 675.409 111.587 674.176 111.587C670.726 111.587 667.46 112.251 664.379 113.578C661.36 114.843 658.71 116.677 656.43 119.08C654.212 121.483 652.456 124.392 651.162 127.807C649.868 131.158 649.221 134.952 649.221 139.189C649.221 140.138 649.251 141.213 649.313 142.414C649.436 143.616 649.59 144.849 649.775 146.114C650.022 147.315 650.299 148.485 650.607 149.623C650.915 150.761 651.316 151.773 651.809 152.658L681.201 112.63Z" fill="white"/>
<path d="M757.547 190.885H731.02L734.378 53.2827L750.153 29L757.547 190.885Z" fill="#00CFC9"/>
<path d="M804.779 190.885H779.545V89.2957H793.964V99.1606C798.031 95.3664 802.622 92.4576 807.736 90.434C812.912 88.3472 818.304 87.3038 823.911 87.3038C829.95 87.3038 835.65 88.5053 841.011 90.9083C846.372 93.248 851.055 96.5047 855.06 100.678C859.065 104.789 862.208 109.626 864.488 115.191C866.829 120.693 868 126.574 868 132.834V190.885H842.767V132.834C842.767 130.178 842.274 127.68 841.288 125.34C840.302 122.937 838.946 120.851 837.221 119.08C835.496 117.309 833.493 115.918 831.213 114.906C828.933 113.895 826.499 113.389 823.911 113.389C821.262 113.389 818.766 113.895 816.425 114.906C814.083 115.918 812.05 117.309 810.324 119.08C808.599 120.851 807.243 122.937 806.257 125.34C805.272 127.68 804.779 130.178 804.779 132.834V190.885Z" fill="#00CFC9"/>
<path d="M421.493 132.809H426.685C427.671 132.809 428.427 132.586 428.954 132.141C429.505 131.673 429.906 131.157 430.158 130.595C430.433 129.939 430.593 129.19 430.639 128.347V115.944C430.639 114.515 430.903 113.192 431.43 111.974C431.957 110.732 432.668 109.666 433.562 108.776C434.479 107.863 435.534 107.16 436.726 106.668C437.941 106.153 439.224 105.895 440.577 105.895H450.446V115.944H440.577V128.557C440.577 129.424 440.497 130.22 440.336 130.947C440.176 131.673 439.958 132.34 439.683 132.949C439.408 133.535 439.098 134.074 438.754 134.565C438.411 135.034 438.055 135.444 437.688 135.795C436.84 136.662 435.877 137.341 434.8 137.833C435.877 138.302 436.84 138.992 437.688 139.906C438.055 140.304 438.411 140.761 438.754 141.276C439.098 141.792 439.408 142.389 439.683 143.068C439.958 143.724 440.176 144.474 440.336 145.317C440.497 146.137 440.577 147.05 440.577 148.057V160.565H450.446V170.649H440.577C439.293 170.649 438.044 170.392 436.829 169.876C435.637 169.361 434.582 168.646 433.665 167.733C432.748 166.843 432.015 165.777 431.465 164.536C430.914 163.318 430.639 161.994 430.639 160.565V148.057C430.662 146.769 430.467 145.774 430.055 145.071C429.665 144.368 429.218 143.853 428.714 143.525C428.118 143.15 427.441 142.928 426.685 142.857H421.493V132.809Z" fill="#002C38"/>
<path d="M479.399 142.857H474.172C473.415 142.928 472.739 143.15 472.143 143.525C471.891 143.689 471.639 143.9 471.387 144.157C471.157 144.392 470.951 144.696 470.768 145.071C470.584 145.422 470.435 145.844 470.321 146.336C470.229 146.828 470.195 147.401 470.218 148.057V160.565C470.218 161.994 469.942 163.318 469.392 164.536C468.842 165.777 468.109 166.843 467.192 167.733C466.275 168.646 465.209 169.361 463.994 169.876C462.802 170.392 461.564 170.649 460.28 170.649H450.446V160.565H460.28V148.057C460.28 147.05 460.36 146.137 460.521 145.317C460.681 144.474 460.899 143.724 461.174 143.068C461.449 142.389 461.759 141.792 462.102 141.276C462.446 140.761 462.802 140.304 463.168 139.906C464.017 138.992 464.979 138.302 466.057 137.833C464.979 137.341 464.017 136.662 463.168 135.795C462.802 135.444 462.446 135.034 462.102 134.565C461.759 134.074 461.449 133.535 461.174 132.949C460.899 132.34 460.681 131.673 460.521 130.947C460.36 130.22 460.28 129.424 460.28 128.557V115.944H450.446V105.895H460.28C461.633 105.895 462.905 106.153 464.097 106.668C465.312 107.16 466.366 107.863 467.26 108.776C468.177 109.666 468.899 110.732 469.427 111.974C469.954 113.192 470.218 114.515 470.218 115.944V128.347C470.263 129.19 470.424 129.939 470.699 130.595C470.951 131.157 471.341 131.673 471.868 132.141C472.395 132.586 473.163 132.809 474.172 132.809H479.399V142.857Z" fill="#002C38"/>
</svg>
